<?xml version="1.0" encoding="utf-8"?>
<!-- Generator: Adobe Illustrator 16.0.0, SVG Export Plug-In . SVG Version: 6.00 Build 0)  -->
<!DOCTYPE svg PUBLIC "-//W3C//DTD SVG 1.1//EN" "http://www.w3.org/Graphics/SVG/1.1/DTD/svg11.dtd">
<svg version="1.1" id="Layer_1" xmlns="http://www.w3.org/2000/svg" xmlns:xlink="http://www.w3.org/1999/xlink" x="0px" y="0px"
	 width="595.28px" height="594.708px" viewBox="0 0 595.28 594.708" enable-background="new 0 0 595.28 594.708"
	 xml:space="preserve">
<g id="install-tool-icon">
	<path fill="#2D2B2A" d="M115.25,118.996h355v354.988h-355V118.996z"/>
	<path fill="#FFFFFF" d="M407.179,260.174l-40.672-11.612c-1.114-3.215-2.394-6.376-3.855-9.455l20.501-36.917
		c1.041-1.865,0.712-4.203-0.805-5.701L360.35,174.48c-1.498-1.506-3.837-1.836-5.701-0.804l-36.907,20.501
		c-3.105-1.453-6.249-2.742-9.464-3.855l-11.622-40.663c-0.584-2.055-2.484-3.463-4.623-3.463h-31.079
		c-2.156,0-4.02,1.416-4.604,3.463l-11.621,40.68c-3.252,1.151-6.413,2.376-9.464,3.855l-36.908-20.5
		c-1.864-1.052-4.203-0.713-5.719,0.804l-21.98,21.971c-1.498,1.517-1.846,3.847-0.804,5.72l20.5,36.907
		c-1.462,3.088-2.741,6.239-3.837,9.464l-40.69,11.603c-2.064,0.604-3.472,2.494-3.472,4.632v31.098
		c0,2.146,1.408,4.028,3.472,4.604l40.654,11.603c1.169,3.243,2.394,6.405,3.874,9.464l-20.5,36.917
		c-1.06,1.864-0.73,4.203,0.804,5.701l22,22.007c1.498,1.5,3.836,1.836,5.7,0.804l36.908-20.499c3.069,1.471,6.23,2.695,9.464,3.855
		l11.621,40.662c0.584,2.046,2.466,3.463,4.604,3.463h31.098c2.156,0,4.019-1.417,4.604-3.463l11.622-40.662
		c3.233-1.16,6.395-2.385,9.464-3.855l36.907,20.499c1.864,1.032,4.203,0.704,5.701-0.804l21.998-22.007
		c1.499-1.508,1.846-3.837,0.805-5.701l-20.501-36.917c1.48-3.059,2.705-6.23,3.855-9.464l40.672-11.603
		c2.046-0.602,3.453-2.484,3.453-4.623v-31.088C410.632,262.648,409.225,260.776,407.179,260.174L407.179,260.174z M276.485,337.826
		c-31.737,0-57.481-25.735-57.481-57.49s25.744-57.49,57.481-57.49c31.772,0,57.499,25.735,57.499,57.49
		S308.258,337.826,276.485,337.826z"/>
	<path fill="#FFFFFF" d="M276.485,280.335h178.874v178.849H276.485V280.335z"/>
	<path fill="#2D2B2A" d="M440.45,295.235v149.049H291.394V295.235H440.45 M470.25,265.427H261.594v208.665H470.25V265.427z"/>
	<path fill="#2D2B2A" d="M306.304,310.144h119.238v14.9H306.304V310.144z M306.304,339.955h119.238v89.419H306.304V339.955z"/>
	<path fill="#FFFFFF" d="M353.937,411.678c1.662,1.627,4.331,1.627,5.992-0.01l42.007-42.005c1.644-1.617,1.681-4.275,0.072-5.939
		c-0.036-0.026-0.072-0.062-0.109-0.09l-5.938-5.938c-1.646-1.645-4.294-1.691-5.976-0.093l-30.11,30.112
		c-1.607,1.616-4.24,1.634-5.865,0.017c-0.019-0.017-0.037-0.036-0.056-0.054l-12.058-12.051c-1.608-1.644-4.276-1.662-5.921-0.046
		c-0.018,0.036-0.055,0.065-0.072,0.093l-5.957,5.947c-1.663,1.626-1.718,4.293-0.073,5.965c0,0.019,0.019,0.036,0.036,0.055
		L353.937,411.678L353.937,411.678z"/>
</g>
</svg>
